<svg xmlns="http://www.w3.org/2000/svg" viewBox="0 0 400 335.2" role="img" aria-label="INA219 #904 interactive top view">
<defs><filter id="s" x="-20%" y="-20%" width="140%" height="140%"><feDropShadow dx="0" dy="3" stdDeviation="3" flood-opacity=".35"/></filter><linearGradient id="metal" x1="0" y1="0" x2="0" y2="1"><stop stop-color="#fafafa"/><stop offset=".55" stop-color="#b8c0bc"/><stop offset="1" stop-color="#7b8580"/></linearGradient></defs>
<rect x="98.4" y="48" width="203.2" height="183.2" rx="9" fill="#151a18" stroke="#738079" stroke-width="2" filter="url(#s)"/>
<text x="200" y="17" text-anchor="middle" fill="#53615a" font-family="ui-monospace,monospace" font-size="8" font-weight="800" letter-spacing="1.2">↑ FRONT · TOP · CIRCUITLAB STYLE V1</text>
<text x="108.4" y="63" fill="#eef4ef" font-family="ui-monospace,monospace" font-size="6.5" font-weight="700">Adafruit Industries</text>
<text x="108.4" y="73" fill="#9eb0a6" font-family="ui-monospace,monospace" font-size="5.5">INA219 #904</text>
<text x="200" y="287.2" text-anchor="middle" fill="#26332c" font-family="ui-monospace,monospace" font-size="11" font-weight="800">INA219 #904</text>
<text x="200" y="304" text-anchor="middle" fill="#278b50" font-family="ui-monospace,monospace" font-size="7" font-weight="700">CURRENT / BUS VOLTAGE · I²C 0x40</text>
<circle cx="116.8" cy="66.4" r="6.5" fill="#d7aa26" stroke="#f5dc75" stroke-width="1"/><circle cx="116.8" cy="66.4" r="3.4" fill="#e9ece8"/>
<circle cx="283.2" cy="66.4" r="6.5" fill="#d7aa26" stroke="#f5dc75" stroke-width="1"/><circle cx="283.2" cy="66.4" r="3.4" fill="#e9ece8"/>
<circle cx="116.8" cy="212.8" r="6.5" fill="#d7aa26" stroke="#f5dc75" stroke-width="1"/><circle cx="116.8" cy="212.8" r="3.4" fill="#e9ece8"/>
<circle cx="283.2" cy="212.8" r="6.5" fill="#d7aa26" stroke="#f5dc75" stroke-width="1"/><circle cx="283.2" cy="212.8" r="3.4" fill="#e9ece8"/>
<rect x="96.4" y="126.776" width="19" height="28" rx="3" fill="#e8dfcd" stroke="#9f9685"/>
<rect x="284.6" y="126.776" width="19" height="28" rx="3" fill="#e8dfcd" stroke="#9f9685"/>
<path d="M200 124L117.6 212" stroke="#7c8c82" stroke-width="1" opacity=".24" fill="none"/>
<path d="M200 124L141.143 212" stroke="#7c8c82" stroke-width="1" opacity=".24" fill="none"/>
<path d="M200 124L164.686 212" stroke="#7c8c82" stroke-width="1" opacity=".24" fill="none"/>
<path d="M200 124L188.229 212" stroke="#7c8c82" stroke-width="1" opacity=".24" fill="none"/>
<path d="M200 124L211.771 212" stroke="#7c8c82" stroke-width="1" opacity=".24" fill="none"/>
<path d="M200 124L235.314 212" stroke="#7c8c82" stroke-width="1" opacity=".24" fill="none"/>
<path d="M200 124L258.857 212" stroke="#7c8c82" stroke-width="1" opacity=".24" fill="none"/>
<path d="M200 124L282.4 212" stroke="#7c8c82" stroke-width="1" opacity=".24" fill="none"/>
<rect x="168" y="92" width="64" height="64" rx="5" fill="#e6e3d9" stroke="#9ca49f" stroke-width="1.5"/>
<text x="200" y="127" text-anchor="middle" fill="#222925" font-family="ui-monospace,monospace" font-size="8" font-weight="800">CURRENT</text>
<g id="pin-VIN" data-pin="VIN">
<circle cx="117.6" cy="212" r="8.4" fill="#ff6b6b" stroke="#16201a" stroke-width="1.5"/>
<circle cx="117.6" cy="212" r="5.5" fill="#f5f7f4" stroke="#c8d0cb" stroke-width="1"/>
<circle cx="117.6" cy="212" r="2.4" fill="#3e4641"/>
<text x="117.6" y="248.8" text-anchor="middle" fill="#ff6b6b" font-family="ui-monospace,monospace" font-size="6.5" font-weight="800">VIN</text>
</g>
<g id="pin-GND" data-pin="GND">
<circle cx="141.143" cy="212" r="8.4" fill="#707873" stroke="#16201a" stroke-width="1.5"/>
<circle cx="141.143" cy="212" r="5.5" fill="#f5f7f4" stroke="#c8d0cb" stroke-width="1"/>
<circle cx="141.143" cy="212" r="2.4" fill="#3e4641"/>
<text x="141.143" y="248.8" text-anchor="middle" fill="#707873" font-family="ui-monospace,monospace" font-size="6.5" font-weight="800">GND</text>
</g>
<g id="pin-SCL" data-pin="SCL">
<circle cx="164.686" cy="212" r="8.4" fill="#f3c94f" stroke="#16201a" stroke-width="1.5"/>
<circle cx="164.686" cy="212" r="5.5" fill="#f5f7f4" stroke="#c8d0cb" stroke-width="1"/>
<circle cx="164.686" cy="212" r="2.4" fill="#3e4641"/>
<text x="164.686" y="248.8" text-anchor="middle" fill="#f3c94f" font-family="ui-monospace,monospace" font-size="6.5" font-weight="800">SCL</text>
</g>
<g id="pin-SDA" data-pin="SDA">
<circle cx="188.229" cy="212" r="8.4" fill="#69a7ff" stroke="#16201a" stroke-width="1.5"/>
<circle cx="188.229" cy="212" r="5.5" fill="#f5f7f4" stroke="#c8d0cb" stroke-width="1"/>
<circle cx="188.229" cy="212" r="2.4" fill="#3e4641"/>
<text x="188.229" y="248.8" text-anchor="middle" fill="#69a7ff" font-family="ui-monospace,monospace" font-size="6.5" font-weight="800">SDA</text>
</g>
<g id="pin-VIN+" data-pin="VIN+">
<circle cx="211.771" cy="212" r="8.4" fill="#ae7bff" stroke="#16201a" stroke-width="1.5"/>
<circle cx="211.771" cy="212" r="5.5" fill="#f5f7f4" stroke="#c8d0cb" stroke-width="1"/>
<circle cx="211.771" cy="212" r="2.4" fill="#3e4641"/>
<text x="211.771" y="248.8" text-anchor="middle" fill="#ae7bff" font-family="ui-monospace,monospace" font-size="6.5" font-weight="800">VIN+</text>
</g>
<g id="pin-VIN-" data-pin="VIN-">
<circle cx="235.314" cy="212" r="8.4" fill="#ae7bff" stroke="#16201a" stroke-width="1.5"/>
<circle cx="235.314" cy="212" r="5.5" fill="#f5f7f4" stroke="#c8d0cb" stroke-width="1"/>
<circle cx="235.314" cy="212" r="2.4" fill="#3e4641"/>
<text x="235.314" y="248.8" text-anchor="middle" fill="#ae7bff" font-family="ui-monospace,monospace" font-size="6.5" font-weight="800">VIN-</text>
</g>
<g id="pin-A0" data-pin="A0">
<circle cx="258.857" cy="212" r="8.4" fill="#ae7bff" stroke="#16201a" stroke-width="1.5"/>
<circle cx="258.857" cy="212" r="5.5" fill="#f5f7f4" stroke="#c8d0cb" stroke-width="1"/>
<circle cx="258.857" cy="212" r="2.4" fill="#3e4641"/>
<text x="258.857" y="248.8" text-anchor="middle" fill="#ae7bff" font-family="ui-monospace,monospace" font-size="6.5" font-weight="800">A0</text>
</g>
<g id="pin-A1" data-pin="A1">
<circle cx="282.4" cy="212" r="8.4" fill="#ae7bff" stroke="#16201a" stroke-width="1.5"/>
<circle cx="282.4" cy="212" r="5.5" fill="#f5f7f4" stroke="#c8d0cb" stroke-width="1"/>
<circle cx="282.4" cy="212" r="2.4" fill="#3e4641"/>
<text x="282.4" y="248.8" text-anchor="middle" fill="#ae7bff" font-family="ui-monospace,monospace" font-size="6.5" font-weight="800">A1</text>
</g>
</svg>
