<svg xmlns="http://www.w3.org/2000/svg" viewBox="0 0 416 344" role="img" aria-label="PIR Motion Sensor #189 interactive top view">
<defs><filter id="s" x="-20%" y="-20%" width="140%" height="140%"><feDropShadow dx="0" dy="3" stdDeviation="3" flood-opacity=".35"/></filter><linearGradient id="metal" x1="0" y1="0" x2="0" y2="1"><stop stop-color="#fafafa"/><stop offset=".55" stop-color="#b8c0bc"/><stop offset="1" stop-color="#7b8580"/></linearGradient></defs>
<rect x="80" y="48" width="256" height="192" rx="9" fill="#176c4b" stroke="#738079" stroke-width="2" filter="url(#s)"/>
<text x="208" y="17" text-anchor="middle" fill="#53615a" font-family="ui-monospace,monospace" font-size="8" font-weight="800" letter-spacing="1.2">↑ FRONT · TOP · CIRCUITLAB STYLE V1</text>
<text x="90" y="63" fill="#eef4ef" font-family="ui-monospace,monospace" font-size="6.5" font-weight="700">Adafruit Industries</text>
<text x="90" y="73" fill="#9eb0a6" font-family="ui-monospace,monospace" font-size="5.5">PIR Motion Sensor #189</text>
<text x="208" y="296" text-anchor="middle" fill="#26332c" font-family="ui-monospace,monospace" font-size="11" font-weight="800">PIR Motion Sensor #189</text>
<text x="208" y="312.8" text-anchor="middle" fill="#278b50" font-family="ui-monospace,monospace" font-size="7" font-weight="700">MOTION · DIGITAL OUTPUT</text>
<circle cx="98.4" cy="66.4" r="6.5" fill="#d7aa26" stroke="#f5dc75" stroke-width="1"/><circle cx="98.4" cy="66.4" r="3.4" fill="#e9ece8"/>
<circle cx="317.6" cy="66.4" r="6.5" fill="#d7aa26" stroke="#f5dc75" stroke-width="1"/><circle cx="317.6" cy="66.4" r="3.4" fill="#e9ece8"/>
<circle cx="98.4" cy="221.6" r="6.5" fill="#d7aa26" stroke="#f5dc75" stroke-width="1"/><circle cx="98.4" cy="221.6" r="3.4" fill="#e9ece8"/>
<circle cx="317.6" cy="221.6" r="6.5" fill="#d7aa26" stroke="#f5dc75" stroke-width="1"/><circle cx="317.6" cy="221.6" r="3.4" fill="#e9ece8"/>
<rect x="78" y="130.56" width="19" height="28" rx="3" fill="#e8dfcd" stroke="#9f9685"/>
<rect x="319" y="130.56" width="19" height="28" rx="3" fill="#e8dfcd" stroke="#9f9685"/>
<path d="M208 128L99.2 220.8" stroke="#7c8c82" stroke-width="1" opacity=".24" fill="none"/>
<path d="M208 128L208 220.8" stroke="#7c8c82" stroke-width="1" opacity=".24" fill="none"/>
<path d="M208 128L316.8 220.8" stroke="#7c8c82" stroke-width="1" opacity=".24" fill="none"/>
<rect x="144" y="72" width="128" height="112" rx="5" fill="#f0eee5" stroke="#9ca49f" stroke-width="1.5"/>
<text x="208" y="131" text-anchor="middle" fill="#222925" font-family="ui-monospace,monospace" font-size="8" font-weight="800">PIR</text>
<g id="pin-5V" data-pin="5V">
<circle cx="99.2" cy="220.8" r="8.4" fill="#ff6b6b" stroke="#16201a" stroke-width="1.5"/>
<circle cx="99.2" cy="220.8" r="5.5" fill="#f5f7f4" stroke="#c8d0cb" stroke-width="1"/>
<circle cx="99.2" cy="220.8" r="2.4" fill="#3e4641"/>
<text x="99.2" y="257.6" text-anchor="middle" fill="#ff6b6b" font-family="ui-monospace,monospace" font-size="6.5" font-weight="800">5V</text>
</g>
<g id="pin-OUT" data-pin="OUT">
<circle cx="208" cy="220.8" r="8.4" fill="#ae7bff" stroke="#16201a" stroke-width="1.5"/>
<circle cx="208" cy="220.8" r="5.5" fill="#f5f7f4" stroke="#c8d0cb" stroke-width="1"/>
<circle cx="208" cy="220.8" r="2.4" fill="#3e4641"/>
<text x="208" y="257.6" text-anchor="middle" fill="#ae7bff" font-family="ui-monospace,monospace" font-size="6.5" font-weight="800">OUT</text>
</g>
<g id="pin-GND" data-pin="GND">
<circle cx="316.8" cy="220.8" r="8.4" fill="#707873" stroke="#16201a" stroke-width="1.5"/>
<circle cx="316.8" cy="220.8" r="5.5" fill="#f5f7f4" stroke="#c8d0cb" stroke-width="1"/>
<circle cx="316.8" cy="220.8" r="2.4" fill="#3e4641"/>
<text x="316.8" y="257.6" text-anchor="middle" fill="#707873" font-family="ui-monospace,monospace" font-size="6.5" font-weight="800">GND</text>
</g>
</svg>
