<svg xmlns="http://www.w3.org/2000/svg" viewBox="0 0 448 416" role="img" aria-label="BNO055 #2472 interactive top view">
<defs><filter id="s" x="-20%" y="-20%" width="140%" height="140%"><feDropShadow dx="0" dy="3" stdDeviation="3" flood-opacity=".35"/></filter><linearGradient id="metal" x1="0" y1="0" x2="0" y2="1"><stop stop-color="#fafafa"/><stop offset=".55" stop-color="#b8c0bc"/><stop offset="1" stop-color="#7b8580"/></linearGradient></defs>
<rect x="144" y="48" width="160" height="216" rx="9" fill="#151a18" stroke="#738079" stroke-width="2" filter="url(#s)"/>
<text x="224" y="17" text-anchor="middle" fill="#53615a" font-family="ui-monospace,monospace" font-size="8" font-weight="800" letter-spacing="1.2">↑ FRONT · TOP · CIRCUITLAB STYLE V1</text>
<text x="154" y="63" fill="#eef4ef" font-family="ui-monospace,monospace" font-size="6.5" font-weight="700">Adafruit Industries</text>
<text x="154" y="73" fill="#9eb0a6" font-family="ui-monospace,monospace" font-size="5.5">BNO055 #2472</text>
<text x="224" y="368" text-anchor="middle" fill="#26332c" font-family="ui-monospace,monospace" font-size="11" font-weight="800">BNO055 #2472</text>
<text x="224" y="384.8" text-anchor="middle" fill="#278b50" font-family="ui-monospace,monospace" font-size="7" font-weight="700">9-DOF FUSION IMU · I²C / UART</text>
<circle cx="162.4" cy="66.4" r="6.5" fill="#d7aa26" stroke="#f5dc75" stroke-width="1"/><circle cx="162.4" cy="66.4" r="3.4" fill="#e9ece8"/>
<circle cx="285.6" cy="66.4" r="6.5" fill="#d7aa26" stroke="#f5dc75" stroke-width="1"/><circle cx="285.6" cy="66.4" r="3.4" fill="#e9ece8"/>
<circle cx="162.4" cy="245.6" r="6.5" fill="#d7aa26" stroke="#f5dc75" stroke-width="1"/><circle cx="162.4" cy="245.6" r="3.4" fill="#e9ece8"/>
<circle cx="285.6" cy="245.6" r="6.5" fill="#d7aa26" stroke="#f5dc75" stroke-width="1"/><circle cx="285.6" cy="245.6" r="3.4" fill="#e9ece8"/>
<rect x="142" y="140.88" width="19" height="28" rx="3" fill="#e8dfcd" stroke="#9f9685"/>
<rect x="287" y="140.88" width="19" height="28" rx="3" fill="#e8dfcd" stroke="#9f9685"/>
<path d="M224 136L157.6 244.8" stroke="#7c8c82" stroke-width="1" opacity=".24" fill="none"/>
<path d="M224 136L172.4 244.8" stroke="#7c8c82" stroke-width="1" opacity=".24" fill="none"/>
<path d="M224 136L187.2 244.8" stroke="#7c8c82" stroke-width="1" opacity=".24" fill="none"/>
<path d="M224 136L202 244.8" stroke="#7c8c82" stroke-width="1" opacity=".24" fill="none"/>
<path d="M224 136L216.8 244.8" stroke="#7c8c82" stroke-width="1" opacity=".24" fill="none"/>
<path d="M224 136L231.2 244.8" stroke="#7c8c82" stroke-width="1" opacity=".24" fill="none"/>
<path d="M224 136L246 244.8" stroke="#7c8c82" stroke-width="1" opacity=".24" fill="none"/>
<path d="M224 136L260.8 244.8" stroke="#7c8c82" stroke-width="1" opacity=".24" fill="none"/>
<path d="M224 136L275.6 244.8" stroke="#7c8c82" stroke-width="1" opacity=".24" fill="none"/>
<path d="M224 136L290.4 244.8" stroke="#7c8c82" stroke-width="1" opacity=".24" fill="none"/>
<rect x="193.6" y="105.6" width="60.8" height="60.8" rx="5" fill="#e8e7df" stroke="#9ca49f" stroke-width="1.5"/>
<text x="224" y="139" text-anchor="middle" fill="#222925" font-family="ui-monospace,monospace" font-size="8" font-weight="800">BNO055</text>
<g id="pin-VIN" data-pin="VIN">
<circle cx="157.6" cy="244.8" r="8.4" fill="#ff6b6b" stroke="#16201a" stroke-width="1.5"/>
<circle cx="157.6" cy="244.8" r="5.5" fill="#f5f7f4" stroke="#c8d0cb" stroke-width="1"/>
<circle cx="157.6" cy="244.8" r="2.4" fill="#3e4641"/>
<text x="157.6" y="280" transform="rotate(-62 157.6 280)" text-anchor="start" fill="#ff6b6b" font-family="ui-monospace,monospace" font-size="5.7" font-weight="800">VIN</text>
</g>
<g id="pin-3VO" data-pin="3VO">
<circle cx="172.4" cy="244.8" r="8.4" fill="#ff6b6b" stroke="#16201a" stroke-width="1.5"/>
<circle cx="172.4" cy="244.8" r="5.5" fill="#f5f7f4" stroke="#c8d0cb" stroke-width="1"/>
<circle cx="172.4" cy="244.8" r="2.4" fill="#3e4641"/>
<text x="172.4" y="280" transform="rotate(-62 172.4 280)" text-anchor="start" fill="#ff6b6b" font-family="ui-monospace,monospace" font-size="5.7" font-weight="800">3VO</text>
</g>
<g id="pin-GND" data-pin="GND">
<circle cx="187.2" cy="244.8" r="8.4" fill="#707873" stroke="#16201a" stroke-width="1.5"/>
<circle cx="187.2" cy="244.8" r="5.5" fill="#f5f7f4" stroke="#c8d0cb" stroke-width="1"/>
<circle cx="187.2" cy="244.8" r="2.4" fill="#3e4641"/>
<text x="187.2" y="280" transform="rotate(-62 187.2 280)" text-anchor="start" fill="#707873" font-family="ui-monospace,monospace" font-size="5.7" font-weight="800">GND</text>
</g>
<g id="pin-SDA" data-pin="SDA">
<circle cx="202" cy="244.8" r="8.4" fill="#69a7ff" stroke="#16201a" stroke-width="1.5"/>
<circle cx="202" cy="244.8" r="5.5" fill="#f5f7f4" stroke="#c8d0cb" stroke-width="1"/>
<circle cx="202" cy="244.8" r="2.4" fill="#3e4641"/>
<text x="202" y="280" transform="rotate(-62 202 280)" text-anchor="start" fill="#69a7ff" font-family="ui-monospace,monospace" font-size="5.7" font-weight="800">SDA</text>
</g>
<g id="pin-SCL" data-pin="SCL">
<circle cx="216.8" cy="244.8" r="8.4" fill="#f3c94f" stroke="#16201a" stroke-width="1.5"/>
<circle cx="216.8" cy="244.8" r="5.5" fill="#f5f7f4" stroke="#c8d0cb" stroke-width="1"/>
<circle cx="216.8" cy="244.8" r="2.4" fill="#3e4641"/>
<text x="216.8" y="280" transform="rotate(-62 216.8 280)" text-anchor="start" fill="#f3c94f" font-family="ui-monospace,monospace" font-size="5.7" font-weight="800">SCL</text>
</g>
<g id="pin-RST" data-pin="RST">
<circle cx="231.2" cy="244.8" r="8.4" fill="#ae7bff" stroke="#16201a" stroke-width="1.5"/>
<circle cx="231.2" cy="244.8" r="5.5" fill="#f5f7f4" stroke="#c8d0cb" stroke-width="1"/>
<circle cx="231.2" cy="244.8" r="2.4" fill="#3e4641"/>
<text x="231.2" y="280" transform="rotate(-62 231.2 280)" text-anchor="start" fill="#ae7bff" font-family="ui-monospace,monospace" font-size="5.7" font-weight="800">RST</text>
</g>
<g id="pin-INT" data-pin="INT">
<circle cx="246" cy="244.8" r="8.4" fill="#ae7bff" stroke="#16201a" stroke-width="1.5"/>
<circle cx="246" cy="244.8" r="5.5" fill="#f5f7f4" stroke="#c8d0cb" stroke-width="1"/>
<circle cx="246" cy="244.8" r="2.4" fill="#3e4641"/>
<text x="246" y="280" transform="rotate(-62 246 280)" text-anchor="start" fill="#ae7bff" font-family="ui-monospace,monospace" font-size="5.7" font-weight="800">INT</text>
</g>
<g id="pin-ADR" data-pin="ADR">
<circle cx="260.8" cy="244.8" r="8.4" fill="#ae7bff" stroke="#16201a" stroke-width="1.5"/>
<circle cx="260.8" cy="244.8" r="5.5" fill="#f5f7f4" stroke="#c8d0cb" stroke-width="1"/>
<circle cx="260.8" cy="244.8" r="2.4" fill="#3e4641"/>
<text x="260.8" y="280" transform="rotate(-62 260.8 280)" text-anchor="start" fill="#ae7bff" font-family="ui-monospace,monospace" font-size="5.7" font-weight="800">ADR</text>
</g>
<g id="pin-PS0" data-pin="PS0">
<circle cx="275.6" cy="244.8" r="8.4" fill="#ae7bff" stroke="#16201a" stroke-width="1.5"/>
<circle cx="275.6" cy="244.8" r="5.5" fill="#f5f7f4" stroke="#c8d0cb" stroke-width="1"/>
<circle cx="275.6" cy="244.8" r="2.4" fill="#3e4641"/>
<text x="275.6" y="280" transform="rotate(-62 275.6 280)" text-anchor="start" fill="#ae7bff" font-family="ui-monospace,monospace" font-size="5.7" font-weight="800">PS0</text>
</g>
<g id="pin-PS1" data-pin="PS1">
<circle cx="290.4" cy="244.8" r="8.4" fill="#ae7bff" stroke="#16201a" stroke-width="1.5"/>
<circle cx="290.4" cy="244.8" r="5.5" fill="#f5f7f4" stroke="#c8d0cb" stroke-width="1"/>
<circle cx="290.4" cy="244.8" r="2.4" fill="#3e4641"/>
<text x="290.4" y="280" transform="rotate(-62 290.4 280)" text-anchor="start" fill="#ae7bff" font-family="ui-monospace,monospace" font-size="5.7" font-weight="800">PS1</text>
</g>
</svg>
