<svg xmlns="http://www.w3.org/2000/svg" viewBox="0 0 432 304" role="img" aria-label="MCP9808 #1782 (original header-only revision) interactive top view">
<defs><filter id="s" x="-20%" y="-20%" width="140%" height="140%"><feDropShadow dx="0" dy="3" stdDeviation="3" flood-opacity=".35"/></filter><linearGradient id="metal" x1="0" y1="0" x2="0" y2="1"><stop stop-color="#fafafa"/><stop offset=".55" stop-color="#b8c0bc"/><stop offset="1" stop-color="#7b8580"/></linearGradient></defs>
<rect x="132" y="48" width="168" height="104" rx="9" fill="#176a9d" stroke="#738079" stroke-width="2" filter="url(#s)"/>
<text x="216" y="17" text-anchor="middle" fill="#53615a" font-family="ui-monospace,monospace" font-size="8" font-weight="800" letter-spacing="1.2">↑ FRONT · TOP · CIRCUITLAB STYLE V1</text>
<text x="216" y="256" text-anchor="middle" fill="#26332c" font-family="ui-monospace,monospace" font-size="11" font-weight="800">MCP9808 #1782 (original header-only revision)</text>
<text x="216" y="272.8" text-anchor="middle" fill="#278b50" font-family="ui-monospace,monospace" font-size="7" font-weight="700">PRECISION TEMP · I²C 0x18–0x1F</text>
<circle cx="150.4" cy="66.4" r="6.5" fill="#d7aa26" stroke="#f5dc75" stroke-width="1"/><circle cx="150.4" cy="66.4" r="3.4" fill="#e9ece8"/>
<circle cx="281.6" cy="66.4" r="6.5" fill="#d7aa26" stroke="#f5dc75" stroke-width="1"/><circle cx="281.6" cy="66.4" r="3.4" fill="#e9ece8"/>
<path d="M216 92.4L147.2 132.8" stroke="#7c8c82" stroke-width="1" opacity=".24" fill="none"/>
<path d="M216 92.4L166.88 132.8" stroke="#7c8c82" stroke-width="1" opacity=".24" fill="none"/>
<path d="M216 92.4L186.48 132.8" stroke="#7c8c82" stroke-width="1" opacity=".24" fill="none"/>
<path d="M216 92.4L206.16 132.8" stroke="#7c8c82" stroke-width="1" opacity=".24" fill="none"/>
<path d="M216 92.4L225.84 132.8" stroke="#7c8c82" stroke-width="1" opacity=".24" fill="none"/>
<path d="M216 92.4L245.52 132.8" stroke="#7c8c82" stroke-width="1" opacity=".24" fill="none"/>
<path d="M216 92.4L265.12 132.8" stroke="#7c8c82" stroke-width="1" opacity=".24" fill="none"/>
<path d="M216 92.4L284.8 132.8" stroke="#7c8c82" stroke-width="1" opacity=".24" fill="none"/>
<rect x="188" y="72" width="56" height="40.8" rx="5" fill="#e8e7df" stroke="#9ca49f" stroke-width="1.5"/>
<text x="216" y="95.4" text-anchor="middle" fill="#222925" font-family="ui-monospace,monospace" font-size="8" font-weight="800">MCP9808</text>
<g id="pin-VDD" data-pin="VDD">
<circle cx="147.2" cy="132.8" r="8.4" fill="#ff6b6b" stroke="#16201a" stroke-width="1.5"/>
<circle cx="147.2" cy="132.8" r="5.5" fill="#f5f7f4" stroke="#c8d0cb" stroke-width="1"/>
<circle cx="147.2" cy="132.8" r="2.4" fill="#3e4641"/>
<text x="147.2" y="168" transform="rotate(-62 147.2 168)" text-anchor="start" fill="#ff6b6b" font-family="ui-monospace,monospace" font-size="5.7" font-weight="800">VDD</text>
</g>
<g id="pin-GND" data-pin="GND">
<circle cx="166.88" cy="132.8" r="8.4" fill="#707873" stroke="#16201a" stroke-width="1.5"/>
<circle cx="166.88" cy="132.8" r="5.5" fill="#f5f7f4" stroke="#c8d0cb" stroke-width="1"/>
<circle cx="166.88" cy="132.8" r="2.4" fill="#3e4641"/>
<text x="166.88" y="168" transform="rotate(-62 166.88 168)" text-anchor="start" fill="#707873" font-family="ui-monospace,monospace" font-size="5.7" font-weight="800">GND</text>
</g>
<g id="pin-SCL" data-pin="SCL">
<circle cx="186.48" cy="132.8" r="8.4" fill="#f3c94f" stroke="#16201a" stroke-width="1.5"/>
<circle cx="186.48" cy="132.8" r="5.5" fill="#f5f7f4" stroke="#c8d0cb" stroke-width="1"/>
<circle cx="186.48" cy="132.8" r="2.4" fill="#3e4641"/>
<text x="186.48" y="168" transform="rotate(-62 186.48 168)" text-anchor="start" fill="#f3c94f" font-family="ui-monospace,monospace" font-size="5.7" font-weight="800">SCL</text>
</g>
<g id="pin-SDA" data-pin="SDA">
<circle cx="206.16" cy="132.8" r="8.4" fill="#69a7ff" stroke="#16201a" stroke-width="1.5"/>
<circle cx="206.16" cy="132.8" r="5.5" fill="#f5f7f4" stroke="#c8d0cb" stroke-width="1"/>
<circle cx="206.16" cy="132.8" r="2.4" fill="#3e4641"/>
<text x="206.16" y="168" transform="rotate(-62 206.16 168)" text-anchor="start" fill="#69a7ff" font-family="ui-monospace,monospace" font-size="5.7" font-weight="800">SDA</text>
</g>
<g id="pin-ALERT" data-pin="ALERT">
<circle cx="225.84" cy="132.8" r="8.4" fill="#ae7bff" stroke="#16201a" stroke-width="1.5"/>
<circle cx="225.84" cy="132.8" r="5.5" fill="#f5f7f4" stroke="#c8d0cb" stroke-width="1"/>
<circle cx="225.84" cy="132.8" r="2.4" fill="#3e4641"/>
<text x="225.84" y="168" transform="rotate(-62 225.84 168)" text-anchor="start" fill="#ae7bff" font-family="ui-monospace,monospace" font-size="5.7" font-weight="800">ALERT</text>
</g>
<g id="pin-A0" data-pin="A0">
<circle cx="245.52" cy="132.8" r="8.4" fill="#ae7bff" stroke="#16201a" stroke-width="1.5"/>
<circle cx="245.52" cy="132.8" r="5.5" fill="#f5f7f4" stroke="#c8d0cb" stroke-width="1"/>
<circle cx="245.52" cy="132.8" r="2.4" fill="#3e4641"/>
<text x="245.52" y="168" transform="rotate(-62 245.52 168)" text-anchor="start" fill="#ae7bff" font-family="ui-monospace,monospace" font-size="5.7" font-weight="800">A0</text>
</g>
<g id="pin-A1" data-pin="A1">
<circle cx="265.12" cy="132.8" r="8.4" fill="#ae7bff" stroke="#16201a" stroke-width="1.5"/>
<circle cx="265.12" cy="132.8" r="5.5" fill="#f5f7f4" stroke="#c8d0cb" stroke-width="1"/>
<circle cx="265.12" cy="132.8" r="2.4" fill="#3e4641"/>
<text x="265.12" y="168" transform="rotate(-62 265.12 168)" text-anchor="start" fill="#ae7bff" font-family="ui-monospace,monospace" font-size="5.7" font-weight="800">A1</text>
</g>
<g id="pin-A2" data-pin="A2">
<circle cx="284.8" cy="132.8" r="8.4" fill="#ae7bff" stroke="#16201a" stroke-width="1.5"/>
<circle cx="284.8" cy="132.8" r="5.5" fill="#f5f7f4" stroke="#c8d0cb" stroke-width="1"/>
<circle cx="284.8" cy="132.8" r="2.4" fill="#3e4641"/>
<text x="284.8" y="168" transform="rotate(-62 284.8 168)" text-anchor="start" fill="#ae7bff" font-family="ui-monospace,monospace" font-size="5.7" font-weight="800">A2</text>
</g>
</svg>
