<svg xmlns="http://www.w3.org/2000/svg" viewBox="0 0 360 343.2" role="img" aria-label="BMP280 #2651 interactive top view">
<defs><filter id="s" x="-20%" y="-20%" width="140%" height="140%"><feDropShadow dx="0" dy="3" stdDeviation="3" flood-opacity=".35"/></filter><linearGradient id="metal" x1="0" y1="0" x2="0" y2="1"><stop stop-color="#fafafa"/><stop offset=".55" stop-color="#b8c0bc"/><stop offset="1" stop-color="#7b8580"/></linearGradient></defs>
<rect x="103.2" y="48" width="153.6" height="143.2" rx="9" fill="#151a18" stroke="#738079" stroke-width="2" filter="url(#s)"/>
<text x="180" y="17" text-anchor="middle" fill="#53615a" font-family="ui-monospace,monospace" font-size="8" font-weight="800" letter-spacing="1.2">↑ FRONT · TOP · CIRCUITLAB STYLE V1</text>
<text x="113.2" y="63" fill="#eef4ef" font-family="ui-monospace,monospace" font-size="6.5" font-weight="700">Adafruit Industries</text>
<text x="113.2" y="73" fill="#9eb0a6" font-family="ui-monospace,monospace" font-size="5.5">BMP280 #2651</text>
<text x="180" y="295.2" text-anchor="middle" fill="#26332c" font-family="ui-monospace,monospace" font-size="11" font-weight="800">BMP280 #2651</text>
<text x="180" y="312" text-anchor="middle" fill="#278b50" font-family="ui-monospace,monospace" font-size="7" font-weight="700">PRESSURE / TEMP · I²C / SPI</text>
<circle cx="121.6" cy="66.4" r="6.5" fill="#d7aa26" stroke="#f5dc75" stroke-width="1"/><circle cx="121.6" cy="66.4" r="3.4" fill="#e9ece8"/>
<circle cx="238.4" cy="66.4" r="6.5" fill="#d7aa26" stroke="#f5dc75" stroke-width="1"/><circle cx="238.4" cy="66.4" r="3.4" fill="#e9ece8"/>
<circle cx="121.6" cy="172.8" r="6.5" fill="#d7aa26" stroke="#f5dc75" stroke-width="1"/><circle cx="121.6" cy="172.8" r="3.4" fill="#e9ece8"/>
<circle cx="238.4" cy="172.8" r="6.5" fill="#d7aa26" stroke="#f5dc75" stroke-width="1"/><circle cx="238.4" cy="172.8" r="3.4" fill="#e9ece8"/>
<rect x="101.2" y="109.576" width="19" height="28" rx="3" fill="#e8dfcd" stroke="#9f9685"/>
<rect x="239.8" y="109.576" width="19" height="28" rx="3" fill="#e8dfcd" stroke="#9f9685"/>
<path d="M180 108.8L122.4 172" stroke="#7c8c82" stroke-width="1" opacity=".24" fill="none"/>
<path d="M180 108.8L141.6 172" stroke="#7c8c82" stroke-width="1" opacity=".24" fill="none"/>
<path d="M180 108.8L160.8 172" stroke="#7c8c82" stroke-width="1" opacity=".24" fill="none"/>
<path d="M180 108.8L180 172" stroke="#7c8c82" stroke-width="1" opacity=".24" fill="none"/>
<path d="M180 108.8L199.2 172" stroke="#7c8c82" stroke-width="1" opacity=".24" fill="none"/>
<path d="M180 108.8L218.4 172" stroke="#7c8c82" stroke-width="1" opacity=".24" fill="none"/>
<path d="M180 108.8L237.6 172" stroke="#7c8c82" stroke-width="1" opacity=".24" fill="none"/>
<rect x="152.8" y="81.6" width="54.4" height="54.4" rx="5" fill="#e8e7df" stroke="#9ca49f" stroke-width="1.5"/>
<text x="180" y="111.8" text-anchor="middle" fill="#222925" font-family="ui-monospace,monospace" font-size="8" font-weight="800">BMP280</text>
<g id="pin-VIN" data-pin="VIN">
<circle cx="122.4" cy="172" r="8.4" fill="#ff6b6b" stroke="#16201a" stroke-width="1.5"/>
<circle cx="122.4" cy="172" r="5.5" fill="#f5f7f4" stroke="#c8d0cb" stroke-width="1"/>
<circle cx="122.4" cy="172" r="2.4" fill="#3e4641"/>
<text x="122.4" y="207.2" transform="rotate(-62 122.4 207.2)" text-anchor="start" fill="#ff6b6b" font-family="ui-monospace,monospace" font-size="5.7" font-weight="800">VIN</text>
</g>
<g id="pin-3VO" data-pin="3VO">
<circle cx="141.6" cy="172" r="8.4" fill="#ff6b6b" stroke="#16201a" stroke-width="1.5"/>
<circle cx="141.6" cy="172" r="5.5" fill="#f5f7f4" stroke="#c8d0cb" stroke-width="1"/>
<circle cx="141.6" cy="172" r="2.4" fill="#3e4641"/>
<text x="141.6" y="207.2" transform="rotate(-62 141.6 207.2)" text-anchor="start" fill="#ff6b6b" font-family="ui-monospace,monospace" font-size="5.7" font-weight="800">3VO</text>
</g>
<g id="pin-GND" data-pin="GND">
<circle cx="160.8" cy="172" r="8.4" fill="#707873" stroke="#16201a" stroke-width="1.5"/>
<circle cx="160.8" cy="172" r="5.5" fill="#f5f7f4" stroke="#c8d0cb" stroke-width="1"/>
<circle cx="160.8" cy="172" r="2.4" fill="#3e4641"/>
<text x="160.8" y="207.2" transform="rotate(-62 160.8 207.2)" text-anchor="start" fill="#707873" font-family="ui-monospace,monospace" font-size="5.7" font-weight="800">GND</text>
</g>
<g id="pin-SCK" data-pin="SCK">
<circle cx="180" cy="172" r="8.4" fill="#f3c94f" stroke="#16201a" stroke-width="1.5"/>
<circle cx="180" cy="172" r="5.5" fill="#f5f7f4" stroke="#c8d0cb" stroke-width="1"/>
<circle cx="180" cy="172" r="2.4" fill="#3e4641"/>
<text x="180" y="207.2" transform="rotate(-62 180 207.2)" text-anchor="start" fill="#f3c94f" font-family="ui-monospace,monospace" font-size="5.7" font-weight="800">SCK</text>
</g>
<g id="pin-SDO" data-pin="SDO">
<circle cx="199.2" cy="172" r="8.4" fill="#69a7ff" stroke="#16201a" stroke-width="1.5"/>
<circle cx="199.2" cy="172" r="5.5" fill="#f5f7f4" stroke="#c8d0cb" stroke-width="1"/>
<circle cx="199.2" cy="172" r="2.4" fill="#3e4641"/>
<text x="199.2" y="207.2" transform="rotate(-62 199.2 207.2)" text-anchor="start" fill="#69a7ff" font-family="ui-monospace,monospace" font-size="5.7" font-weight="800">SDO</text>
</g>
<g id="pin-SDI" data-pin="SDI">
<circle cx="218.4" cy="172" r="8.4" fill="#69a7ff" stroke="#16201a" stroke-width="1.5"/>
<circle cx="218.4" cy="172" r="5.5" fill="#f5f7f4" stroke="#c8d0cb" stroke-width="1"/>
<circle cx="218.4" cy="172" r="2.4" fill="#3e4641"/>
<text x="218.4" y="207.2" transform="rotate(-62 218.4 207.2)" text-anchor="start" fill="#69a7ff" font-family="ui-monospace,monospace" font-size="5.7" font-weight="800">SDI</text>
</g>
<g id="pin-CS" data-pin="CS">
<circle cx="237.6" cy="172" r="8.4" fill="#ae7bff" stroke="#16201a" stroke-width="1.5"/>
<circle cx="237.6" cy="172" r="5.5" fill="#f5f7f4" stroke="#c8d0cb" stroke-width="1"/>
<circle cx="237.6" cy="172" r="2.4" fill="#3e4641"/>
<text x="237.6" y="207.2" transform="rotate(-62 237.6 207.2)" text-anchor="start" fill="#ae7bff" font-family="ui-monospace,monospace" font-size="5.7" font-weight="800">CS</text>
</g>
</svg>
